<svg width="178" height="40" viewBox="0 0 178 40" fill="none" xmlns="http://www.w3.org/2000/svg">
<path d="M14.5284 12.9634C17.9073 13.4461 19.0284 11.4634 18.5285 8.96338L16.0284 7.96338L9.52844 9.46338L5.52844 14.9634L7.02844 23.4634L18.0284 33.9634L21.5284 39.4634C21.5284 33.9634 20.8444 29.8617 15.5284 25.9634C8.02844 20.4634 8.26745 12.069 14.5284 12.9634Z" fill="url(#paint0_linear_29223_155)"/>
<path d="M13.0285 30.4632C18.4691 34.5436 20.1951 37.6299 21.5285 39.4632C20.3285 34.2632 14.0285 27.9632 11.0284 25.4633C8.86177 23.7966 5.22844 19.1633 8.02844 13.9633C10.8284 8.76328 16.0284 8.46335 18.5284 8.96322C18 7.60461 13.5911 5.35395 8.52843 7.46333C1.49845 10.3924 1.52837 17.4633 4.02848 21.4632C4.7888 22.6797 7.02844 25.9633 13.0285 30.4632Z" fill="url(#paint1_linear_29223_155)"/>
<circle cx="8.90005" cy="4.19998" r="2.1" fill="url(#paint2_linear_29223_155)"/>
<circle cx="5.1" cy="6.39993" r="1.6" fill="url(#paint3_linear_29223_155)"/>
<circle cx="2.35" cy="8.84988" r="1.35" fill="url(#paint4_linear_29223_155)"/>
<circle cx="1.1" cy="11.8999" r="1.1" fill="url(#paint5_linear_29223_155)"/>
<circle cx="14.65" cy="2.75" r="2.75" fill="url(#paint6_linear_29223_155)"/>
<path d="M22.5 12.9634C19.1212 13.4461 18 11.4634 18.4999 8.96338L21 7.96338L27.5 9.46338L31.5 14.9634L30 23.4634L19 33.9634L15.5 39.4634C15.5 33.9634 16.1841 29.8617 21.5 25.9634C29 20.4634 28.761 12.069 22.5 12.9634Z" fill="url(#paint7_linear_29223_155)"/>
<path d="M24 30.4632C18.5593 34.5436 16.8333 37.6299 15.5 39.4632C16.6999 34.2632 23 27.9632 26 25.4633C28.1667 23.7966 31.8 19.1633 29 13.9633C26.2 8.76328 21 8.46335 18.5 8.96322C19.0284 7.60461 23.4374 5.35395 28.5 7.46333C35.53 10.3924 35.5001 17.4633 33 21.4632C32.2396 22.6797 30 25.9633 24 30.4632Z" fill="url(#paint8_linear_29223_155)"/>
<circle cx="2.1" cy="2.1" r="2.1" transform="matrix(-1 0 0 1 30.2284 2.09998)" fill="url(#paint9_linear_29223_155)"/>
<circle cx="1.6" cy="1.6" r="1.6" transform="matrix(-1 0 0 1 33.5284 4.79993)" fill="url(#paint10_linear_29223_155)"/>
<circle cx="1.35" cy="1.35" r="1.35" transform="matrix(-1 0 0 1 36.0284 7.49988)" fill="url(#paint11_linear_29223_155)"/>
<circle cx="1.1" cy="1.1" r="1.1" transform="matrix(-1 0 0 1 37.0284 10.7999)" fill="url(#paint12_linear_29223_155)"/>
<circle cx="2.75" cy="2.75" r="2.75" transform="matrix(-1 0 0 1 25.1284 0)" fill="url(#paint13_linear_29223_155)"/>
<path d="M56.9274 28.7883V26.1388L56.5863 25.483V20.6037C56.5863 19.8167 56.3415 19.2133 55.8518 18.7936C55.3796 18.3564 54.6189 18.1378 53.5695 18.1378C52.8875 18.1378 52.1967 18.2514 51.4971 18.4788C50.7976 18.6886 50.203 18.986 49.7133 19.3707L48.0344 15.9867C48.8389 15.462 49.8007 15.0598 50.92 14.7799C52.0568 14.4826 53.1848 14.334 54.3041 14.334C56.6126 14.334 58.3964 14.8674 59.6556 15.9342C60.9322 16.9835 61.5706 18.6362 61.5706 20.8922V28.7883H56.9274ZM52.7301 29.0244C51.5933 29.0244 50.6314 28.8321 49.8445 28.4473C49.0575 28.0626 48.4541 27.5379 48.0344 26.8733C47.6322 26.2088 47.431 25.4655 47.431 24.6435C47.431 23.7691 47.6496 23.0171 48.0869 22.3875C48.5416 21.7404 49.2324 21.2507 50.1593 20.9184C51.0862 20.5687 52.2841 20.3938 53.7532 20.3938H57.111V22.9909H54.4352C53.6307 22.9909 53.0624 23.122 52.7301 23.3843C52.4153 23.6467 52.2579 23.9964 52.2579 24.4337C52.2579 24.8709 52.424 25.2207 52.7563 25.483C53.0886 25.7453 53.5433 25.8765 54.1204 25.8765C54.6626 25.8765 55.1523 25.7453 55.5895 25.483C56.0442 25.2032 56.3765 24.7834 56.5863 24.2238L57.2684 26.0601C57.0061 27.0395 56.4901 27.7827 55.7206 28.2899C54.9686 28.7796 53.9718 29.0244 52.7301 29.0244ZM68.9664 29.1556C67.6198 29.1556 66.3956 28.9282 65.2938 28.4735C64.2095 28.0013 63.3089 27.328 62.5918 26.4536L65.425 23.0958C65.9147 23.7254 66.4218 24.2063 66.9465 24.5386C67.4712 24.8534 68.022 25.0108 68.5992 25.0108C70.1382 25.0108 70.9077 24.1189 70.9077 22.335V14.4389H64.5593V10.4253H76.0493V22.0202C76.0493 24.4162 75.446 26.2088 74.2392 27.398C73.0325 28.5697 71.2749 29.1556 68.9664 29.1556ZM86.4544 29.0244C84.8979 29.0244 83.5163 28.7096 82.3096 28.08C81.1029 27.4505 80.1497 26.5848 79.4502 25.483C78.7681 24.3637 78.4271 23.087 78.4271 21.653C78.4271 20.2189 78.7681 18.951 79.4502 17.8492C80.1497 16.7474 81.1029 15.8905 82.3096 15.2784C83.5163 14.6488 84.8979 14.334 86.4544 14.334C88.0109 14.334 89.3925 14.6488 90.5992 15.2784C91.8234 15.8905 92.7765 16.7474 93.4586 17.8492C94.1406 18.951 94.4817 20.2189 94.4817 21.653C94.4817 23.087 94.1406 24.3637 93.4586 25.483C92.7765 26.5848 91.8234 27.4505 90.5992 28.08C89.3925 28.7096 88.0109 29.0244 86.4544 29.0244ZM86.4544 25.0633C87.0315 25.0633 87.5387 24.9321 87.9759 24.6698C88.4306 24.4074 88.7891 24.0227 89.0514 23.5155C89.3138 22.9909 89.4449 22.37 89.4449 21.653C89.4449 20.9359 89.3138 20.3326 89.0514 19.8429C88.7891 19.3357 88.4306 18.951 87.9759 18.6886C87.5387 18.4263 87.0315 18.2952 86.4544 18.2952C85.8947 18.2952 85.3876 18.4263 84.9329 18.6886C84.4956 18.951 84.1371 19.3357 83.8573 19.8429C83.595 20.3326 83.4638 20.9359 83.4638 21.653C83.4638 22.37 83.595 22.9909 83.8573 23.5155C84.1371 24.0227 84.4956 24.4074 84.9329 24.6698C85.3876 24.9321 85.8947 25.0633 86.4544 25.0633ZM102.772 29.0244C101.617 29.0244 100.577 28.7971 99.6499 28.3424C98.7405 27.8877 98.0235 27.1794 97.4988 26.2175C96.9917 25.2381 96.7381 24.0052 96.7381 22.5187V14.5701H101.722V21.7054C101.722 22.8072 101.923 23.5942 102.326 24.0664C102.745 24.5386 103.331 24.7747 104.083 24.7747C104.573 24.7747 105.019 24.661 105.421 24.4337C105.823 24.2063 106.147 23.8478 106.392 23.3581C106.637 22.8509 106.759 22.2039 106.759 21.4169V14.5701H111.743V28.7883H106.995V24.7747L107.913 25.9027C107.424 26.952 106.715 27.739 105.788 28.2637C104.862 28.7708 103.856 29.0244 102.772 29.0244ZM114.954 28.7883V14.5701H119.702V18.7149L118.994 17.5344C119.413 16.4676 120.095 15.6719 121.04 15.1472C121.984 14.6051 123.13 14.334 124.476 14.334V18.8198C124.249 18.7848 124.048 18.7673 123.873 18.7673C123.716 18.7499 123.541 18.7411 123.348 18.7411C122.334 18.7411 121.512 19.0209 120.882 19.5806C120.253 20.1227 119.938 21.0146 119.938 22.2563V28.7883H114.954ZM135.793 14.334C136.895 14.334 137.892 14.5613 138.784 15.016C139.676 15.4533 140.375 16.1353 140.883 17.0622C141.407 17.9891 141.67 19.1871 141.67 20.6561V28.7883H136.685V21.4693C136.685 20.455 136.475 19.7205 136.056 19.2658C135.653 18.7936 135.085 18.5575 134.351 18.5575C133.826 18.5575 133.345 18.6799 132.908 18.9247C132.471 19.1521 132.13 19.5106 131.885 20.0003C131.64 20.49 131.517 21.1283 131.517 21.9153V28.7883H126.533V14.5701H131.281V18.61L130.363 17.4295C130.905 16.3976 131.649 15.6281 132.593 15.121C133.537 14.5963 134.604 14.334 135.793 14.334ZM152.428 29.0244C150.749 29.0244 149.28 28.7096 148.021 28.08C146.78 27.433 145.809 26.5585 145.109 25.4567C144.427 24.3375 144.086 23.0695 144.086 21.653C144.086 20.2364 144.419 18.9772 145.083 17.8754C145.765 16.7562 146.701 15.8905 147.89 15.2784C149.079 14.6488 150.417 14.334 151.904 14.334C153.303 14.334 154.579 14.6225 155.734 15.1997C156.888 15.7593 157.806 16.59 158.488 17.6918C159.17 18.7936 159.511 20.1315 159.511 21.7054C159.511 21.8803 159.503 22.0814 159.485 22.3088C159.468 22.5361 159.45 22.746 159.433 22.9384H148.179V20.3151H156.783L154.894 21.0496C154.912 20.4025 154.789 19.8429 154.527 19.3707C154.282 18.8985 153.932 18.5313 153.478 18.2689C153.04 18.0066 152.525 17.8754 151.93 17.8754C151.335 17.8754 150.811 18.0066 150.356 18.2689C149.919 18.5313 149.578 18.9073 149.333 19.3969C149.088 19.8691 148.966 20.4288 148.966 21.0758V21.8366C148.966 22.5361 149.106 23.1395 149.385 23.6467C149.683 24.1538 150.102 24.5473 150.645 24.8272C151.187 25.0895 151.834 25.2207 152.586 25.2207C153.285 25.2207 153.88 25.1245 154.37 24.9321C154.877 24.7222 155.375 24.4074 155.865 23.9877L158.488 26.7159C157.806 27.4679 156.967 28.0451 155.97 28.4473C154.973 28.8321 153.792 29.0244 152.428 29.0244ZM165.382 28.7883V21.0234L166.589 24.1451L158.378 10.4253H163.861L169.789 20.3676H166.615L172.57 10.4253H177.607L169.422 24.1451L170.576 21.0234V28.7883H165.382Z" fill="black"/>
<defs>
<linearGradient id="paint0_linear_29223_155" x1="13.5284" y1="7.96338" x2="13.5284" y2="39.4634" gradientUnits="userSpaceOnUse">
<stop stop-color="#1A6DA2"/>
<stop offset="1" stop-color="#6CCADE"/>
</linearGradient>
<linearGradient id="paint1_linear_29223_155" x1="12.0142" y1="6.60461" x2="12.0142" y2="39.4632" gradientUnits="userSpaceOnUse">
<stop stop-color="#46B9CD"/>
<stop offset="1" stop-color="#1D3588"/>
</linearGradient>
<linearGradient id="paint2_linear_29223_155" x1="8.90005" y1="2.09998" x2="8.90005" y2="6.29998" gradientUnits="userSpaceOnUse">
<stop stop-color="#23AFCD"/>
<stop offset="1" stop-color="#118FB6"/>
</linearGradient>
<linearGradient id="paint3_linear_29223_155" x1="5.1" y1="4.79993" x2="5.1" y2="7.99993" gradientUnits="userSpaceOnUse">
<stop stop-color="#23AFCD"/>
<stop offset="1" stop-color="#118FB6"/>
</linearGradient>
<linearGradient id="paint4_linear_29223_155" x1="2.35" y1="7.49988" x2="2.35" y2="10.1999" gradientUnits="userSpaceOnUse">
<stop stop-color="#23AFCD"/>
<stop offset="1" stop-color="#118FB6"/>
</linearGradient>
<linearGradient id="paint5_linear_29223_155" x1="1.1" y1="10.7999" x2="1.1" y2="12.9999" gradientUnits="userSpaceOnUse">
<stop stop-color="#23AFCD"/>
<stop offset="1" stop-color="#118FB6"/>
</linearGradient>
<linearGradient id="paint6_linear_29223_155" x1="14.65" y1="0" x2="14.65" y2="5.5" gradientUnits="userSpaceOnUse">
<stop stop-color="#23AFCD"/>
<stop offset="1" stop-color="#118FB6"/>
</linearGradient>
<linearGradient id="paint7_linear_29223_155" x1="23.5" y1="7.96338" x2="23.5" y2="39.4634" gradientUnits="userSpaceOnUse">
<stop stop-color="#AF1D4A"/>
<stop offset="1" stop-color="#ED8D9A"/>
</linearGradient>
<linearGradient id="paint8_linear_29223_155" x1="25.0142" y1="6.60461" x2="25.0142" y2="39.4632" gradientUnits="userSpaceOnUse">
<stop stop-color="#E94193"/>
<stop offset="1" stop-color="#891021"/>
</linearGradient>
<linearGradient id="paint9_linear_29223_155" x1="2.1" y1="0" x2="2.1" y2="4.2" gradientUnits="userSpaceOnUse">
<stop stop-color="#E9246E"/>
<stop offset="1" stop-color="#C32448"/>
</linearGradient>
<linearGradient id="paint10_linear_29223_155" x1="1.6" y1="0" x2="1.6" y2="3.2" gradientUnits="userSpaceOnUse">
<stop stop-color="#E9246E"/>
<stop offset="1" stop-color="#C32448"/>
</linearGradient>
<linearGradient id="paint11_linear_29223_155" x1="1.35" y1="0" x2="1.35" y2="2.7" gradientUnits="userSpaceOnUse">
<stop stop-color="#E9246E"/>
<stop offset="1" stop-color="#C32448"/>
</linearGradient>
<linearGradient id="paint12_linear_29223_155" x1="1.1" y1="0" x2="1.1" y2="2.2" gradientUnits="userSpaceOnUse">
<stop stop-color="#E9246E"/>
<stop offset="1" stop-color="#C32448"/>
</linearGradient>
<linearGradient id="paint13_linear_29223_155" x1="2.75" y1="0" x2="2.75" y2="5.5" gradientUnits="userSpaceOnUse">
<stop stop-color="#E9246E"/>
<stop offset="1" stop-color="#C32448"/>
</linearGradient>
</defs>
</svg>
